<?xml version="1.0" encoding="UTF-8" standalone="no"?>
<!-- Created with Inkscape (http://www.inkscape.org/) -->

<svg
   xmlns:dc="http://purl.org/dc/elements/1.1/"
   xmlns:cc="http://creativecommons.org/ns#"
   xmlns:rdf="http://www.w3.org/1999/02/22-rdf-syntax-ns#"
   xmlns:svg="http://www.w3.org/2000/svg"
   xmlns="http://www.w3.org/2000/svg"
   xmlns:sodipodi="http://sodipodi.sourceforge.net/DTD/sodipodi-0.dtd"
   xmlns:inkscape="http://www.inkscape.org/namespaces/inkscape"
   width="625.80566"
   height="817.00006"
   id="svg2"
   version="1.1"
   inkscape:version="0.47 r22583"
   sodipodi:docname="Nouveau document 1">
  <defs
     id="defs4">
    <inkscape:perspective
       sodipodi:type="inkscape:persp3d"
       inkscape:vp_x="0 : 526.18109 : 1"
       inkscape:vp_y="0 : 1000 : 0"
       inkscape:vp_z="744.09448 : 526.18109 : 1"
       inkscape:persp3d-origin="372.04724 : 350.78739 : 1"
       id="perspective10" />
    <inkscape:perspective
       id="perspective2824"
       inkscape:persp3d-origin="0.5 : 0.33333333 : 1"
       inkscape:vp_z="1 : 0.5 : 1"
       inkscape:vp_y="0 : 1000 : 0"
       inkscape:vp_x="0 : 0.5 : 1"
       sodipodi:type="inkscape:persp3d" />
    <inkscape:perspective
       id="perspective2842"
       inkscape:persp3d-origin="0.5 : 0.33333333 : 1"
       inkscape:vp_z="1 : 0.5 : 1"
       inkscape:vp_y="0 : 1000 : 0"
       inkscape:vp_x="0 : 0.5 : 1"
       sodipodi:type="inkscape:persp3d" />
  </defs>
  <sodipodi:namedview
     id="base"
     pagecolor="#000000"
     bordercolor="#666666"
     borderopacity="1.0"
     inkscape:pageopacity="0"
     inkscape:pageshadow="2"
     inkscape:zoom="0.49497475"
     inkscape:cx="615.12631"
     inkscape:cy="400.46185"
     inkscape:document-units="px"
     inkscape:current-layer="layer1"
     showgrid="false"
     showborder="true"
     inkscape:window-width="1024"
     inkscape:window-height="742"
     inkscape:window-x="-4"
     inkscape:window-y="-4"
     inkscape:window-maximized="1" />
  <metadata
     id="metadata7">
    <rdf:RDF>
      <cc:Work
         rdf:about="">
        <dc:format>image/svg+xml</dc:format>
        <dc:type
           rdf:resource="http://purl.org/dc/dcmitype/StillImage" />
        <dc:title></dc:title>
      </cc:Work>
    </rdf:RDF>
  </metadata>
  <g
     inkscape:label="Calque 1"
     inkscape:groupmode="layer"
     id="layer1"
     transform="translate(764.90225,25.526351)">
    <path
       style="fill:#000000"
       d="m -696.09658,789.97368 c 0,-1.16667 1.33333,-1.5 6,-1.5 4.66667,0 6,0.33333 6,1.5 0,1.16667 -1.33333,1.5 -6,1.5 -4.66667,0 -6,-0.33333 -6,-1.5 z m 22,0 c 0,-1.16667 1.33333,-1.5 6,-1.5 4.66667,0 6,0.33333 6,1.5 0,1.16667 -1.33333,1.5 -6,1.5 -4.66667,0 -6,-0.33333 -6,-1.5 z m 21,0 c 0,-1.17949 1.38889,-1.5 6.5,-1.5 5.11111,0 6.5,0.32051 6.5,1.5 0,1.17949 -1.38889,1.5 -6.5,1.5 -5.11111,0 -6.5,-0.32051 -6.5,-1.5 z m 22,0 c 0,-1.17949 1.38889,-1.5 6.5,-1.5 5.11111,0 6.5,0.32051 6.5,1.5 0,1.17949 -1.38889,1.5 -6.5,1.5 -5.11111,0 -6.5,-0.32051 -6.5,-1.5 z m 22,0 c 0,-1.17949 1.38889,-1.5 6.5,-1.5 5.11111,0 6.5,0.32051 6.5,1.5 0,1.17949 -1.38889,1.5 -6.5,1.5 -5.11111,0 -6.5,-0.32051 -6.5,-1.5 z m 22,0 c 0,-1.17949 1.38889,-1.5 6.5,-1.5 5.11111,0 6.5,0.32051 6.5,1.5 0,1.17949 -1.38889,1.5 -6.5,1.5 -5.11111,0 -6.5,-0.32051 -6.5,-1.5 z m 22,0 c 0,-1.16667 1.33333,-1.5 6,-1.5 4.66667,0 6,0.33333 6,1.5 0,1.16667 -1.33333,1.5 -6,1.5 -4.66667,0 -6,-0.33333 -6,-1.5 z m 22,0 c 0,-1.16667 1.33333,-1.5 6,-1.5 4.66667,0 6,0.33333 6,1.5 0,1.16667 -1.33333,1.5 -6,1.5 -4.66667,0 -6,-0.33333 -6,-1.5 z m 22,0 c 0,-1.16667 1.33333,-1.5 6,-1.5 4.66667,0 6,0.33333 6,1.5 0,1.16667 -1.33333,1.5 -6,1.5 -4.66667,0 -6,-0.33333 -6,-1.5 z m 22,0 c 0,-1.16667 1.33333,-1.5 6,-1.5 4.66667,0 6,0.33333 6,1.5 0,1.16667 -1.33333,1.5 -6,1.5 -4.66667,0 -6,-0.33333 -6,-1.5 z m 21,0 c 0,-1.17949 1.38889,-1.5 6.5,-1.5 5.11111,0 6.5,0.32051 6.5,1.5 0,1.17949 -1.38889,1.5 -6.5,1.5 -5.11111,0 -6.5,-0.32051 -6.5,-1.5 z m 22,0 c 0,-1.17949 1.38889,-1.5 6.5,-1.5 5.11111,0 6.5,0.32051 6.5,1.5 0,1.17949 -1.38889,1.5 -6.5,1.5 -5.11111,0 -6.5,-0.32051 -6.5,-1.5 z m 22,0 c 0,-1.17949 1.38889,-1.5 6.5,-1.5 5.11111,0 6.5,0.32051 6.5,1.5 0,1.17949 -1.38889,1.5 -6.5,1.5 -5.11111,0 -6.5,-0.32051 -6.5,-1.5 z m 22,0 c 0,-1.17949 1.38889,-1.5 6.5,-1.5 5.11111,0 6.5,0.32051 6.5,1.5 0,1.17949 -1.38889,1.5 -6.5,1.5 -5.11111,0 -6.5,-0.32051 -6.5,-1.5 z m 22,0 c 0,-1.16667 1.33333,-1.5 6,-1.5 4.66667,0 6,0.33333 6,1.5 0,1.16667 -1.33333,1.5 -6,1.5 -4.66667,0 -6,-0.33333 -6,-1.5 z m 22,0 c 0,-1.16667 1.33333,-1.5 6,-1.5 4.66667,0 6,0.33333 6,1.5 0,1.16667 -1.33333,1.5 -6,1.5 -4.66667,0 -6,-0.33333 -6,-1.5 z m 22,0 c 0,-1.16667 1.33333,-1.5 6,-1.5 4.66667,0 6,0.33333 6,1.5 0,1.16667 -1.33333,1.5 -6,1.5 -4.66667,0 -6,-0.33333 -6,-1.5 z m 22,0 c 0,-1.16667 1.33333,-1.5 6,-1.5 4.66667,0 6,0.33333 6,1.5 0,1.16667 -1.33333,1.5 -6,1.5 -4.66667,0 -6,-0.33333 -6,-1.5 z m 21,0 c 0,-1.17949 1.38889,-1.5 6.5,-1.5 5.11111,0 6.5,0.32051 6.5,1.5 0,1.17949 -1.38889,1.5 -6.5,1.5 -5.11111,0 -6.5,-0.32051 -6.5,-1.5 z m 22,0 c 0,-1.17949 1.38889,-1.5 6.5,-1.5 5.11111,0 6.5,0.32051 6.5,1.5 0,1.17949 -1.38889,1.5 -6.5,1.5 -5.11111,0 -6.5,-0.32051 -6.5,-1.5 z m 22,0 c 0,-1.17949 1.38889,-1.5 6.5,-1.5 5.11111,0 6.5,0.32051 6.5,1.5 0,1.17949 -1.38889,1.5 -6.5,1.5 -5.11111,0 -6.5,-0.32051 -6.5,-1.5 z m 22,0 c 0,-1.17949 1.38889,-1.5 6.5,-1.5 5.11111,0 6.5,0.32051 6.5,1.5 0,1.17949 -1.38889,1.5 -6.5,1.5 -5.11111,0 -6.5,-0.32051 -6.5,-1.5 z m 22,0 c 0,-1.16667 1.33333,-1.5 6,-1.5 4.66667,0 6,0.33333 6,1.5 0,1.16667 -1.33333,1.5 -6,1.5 -4.66667,0 -6,-0.33333 -6,-1.5 z m 22,0 c 0,-1.14877 1.26869,-1.5 5.41821,-1.5 5.81749,0 8.58179,0.67869 8.58179,2.10699 0,0.49115 -3.15,0.89301 -7,0.89301 -5.55556,0 -7,-0.30952 -7,-1.5 z m -509,-12 c 0,-5.11111 0.32051,-6.5 1.5,-6.5 1.17948,0 1.5,1.38889 1.5,6.5 0,5.11111 -0.32052,6.5 -1.5,6.5 -1.17949,0 -1.5,-1.38889 -1.5,-6.5 z m 520,-4 c 0,-5.11111 0.32051,-6.5 1.5,-6.5 1.17949,0 1.5,1.38889 1.5,6.5 0,5.11111 -0.32051,6.5 -1.5,6.5 -1.17949,0 -1.5,-1.38889 -1.5,-6.5 z m -395,0.52903 0,-2.97098 13.25,-0.27902 13.25,-0.27903 0.25666,-71.25 0.25667,-71.25 -18.00667,0 -18.00666,0 0,-3.5 0,-3.5 17,0 c 9.35,0 17,-0.24676 17,-0.54835 0,-0.3016 -8.2125,-9.32218 -18.25,-20.04574 -10.0375,-10.72356 -18.4,-19.9268 -18.58333,-20.45165 -0.20421,-0.58459 7.26856,-0.95426 19.28996,-0.95426 l 19.6233,0 -0.28996,-90.48816 -0.28997,-90.48817 36.5,-0.26183 36.5,-0.26184 0.26261,-35.73411 0.26262,-35.73412 2.23738,-0.5433 c 1.23057,-0.29882 22.93739,-0.41847 48.23739,-0.26589 l 46,0.27742 0.26313,34.25 0.26313,34.25 79.27126,0 79.27126,0 1.70065,-2.87896 c 0.93535,-1.58342 3.28237,-3.62954 5.2156,-4.54691 l 3.51497,-1.66796 0,-67.70898 0,-67.70897 -3.06445,-1.35646 c -1.68545,-0.74605 -4.04795,-2.92764 -5.25,-4.84798 l -2.18555,-3.49153 -20.91124,0.60388 c -11.50118,0.33213 -26.23868,0.60387 -32.75,0.60387 l -11.83876,0 0,20 0,20 -2.5,0 -2.5,0 0,-39.5 0,-39.5 2.47461,0 2.4746,0 0.2754,15.75 0.27539,15.75 32.52649,0.26338 32.52649,0.26338 1.84087,-3.11635 c 1.01248,-1.71399 3.3674,-4.01702 5.23314,-5.11784 l 3.39227,-2.00149 -0.25963,-47.56665 -0.25963,-47.56664 -5.80796,-1.15958 c -6.72695,-1.34306 -10.53766,-4.50828 -11.58336,-9.62128 l -0.69064,-3.37693 -164.03845,-0.25297 -164.03846,-0.25296 -1.35784,2.53715 c -0.74681,1.39543 -2.84856,3.45846 -4.67056,4.58452 l -3.31273,2.04738 0,24.03642 0,24.03643 3,3.41681 c 2.09881,2.39041 3,4.45775 3,6.88202 l 0,3.4652 10,0 10,0 0,3 0,3 -28.5,0 -28.5,0 0,-3 0,-3 9.61663,0 c 9.3584,0 9.60148,-0.0579 9.05242,-2.15757 -0.75117,-2.87245 1.64727,-8.40617 4.24629,-9.79712 2.02409,-1.08326 2.08466,-1.81385 2.08466,-25.14542 l 0,-24.02974 -5.06665,-4.93507 -5.06666,-4.93508 -51.00073,0 -51.00074,0 0.66837,2.25 c 0.96103,3.23524 3.1049,4.58644 8.35144,5.26357 2.53823,0.32759 5.62747,0.80463 6.86497,1.06008 l 2.25,0.46445 0,51.41356 c 0,50.2938 0.0429,51.4272 1.97221,52.03952 1.08471,0.34427 3.49038,2.3996 5.34593,4.56739 l 3.37372,3.94143 28.15407,0 28.15407,0 0,-19.5 0,-19.5 30,0 30,0 0,19.5 0,19.5 109,0 c 86.88712,0 109,-0.25514 109,-1.25765 0,-0.69171 -11.025,-12.27577 -24.5,-25.74235 -21.82675,-21.81311 -26.38772,-27 -23.74185,-27 0.41699,0 11.10082,10.35 23.74185,23 12.64103,12.65 23.32486,23 23.74185,23 0.41698,0 0.75815,-5.625 0.75815,-12.5 l 0,-12.5 2.5,0 2.5,0 0,39.5 0,39.5 -2.5,0 -2.5,0 0,-19.5 0,-19.5 -50.84721,0 -50.84721,0 -0.64824,11.25 c -0.35654,6.1875 -0.65029,16.75685 -0.65279,23.48746 l -0.005,12.23745 3.84276,2.42583 c 4.70061,2.96736 6.58151,7.1428 5.90826,13.11583 l -0.5049,4.48343 17.87717,0 17.87716,0 0,3.5 0,3.5 -47.5,0 -47.5,0 0,-3.5 0,-3.5 18.44798,0 18.44798,0 -1.05456,-3.02511 c -1.62459,-4.66032 -0.25462,-9.40489 3.72438,-12.8985 1.9271,-1.69201 3.93815,-3.07639 4.46902,-3.07639 0.59346,0 0.9652,-9.24348 0.9652,-24 l 0,-24 -57.47886,0 -57.47886,0 -0.27114,-19.75 -0.27114,-19.75 -24.25,-0.26778 -24.25,-0.26778 -0.006,11.76778 c -0.003,6.47228 -0.295,15.48028 -0.64822,20.01778 l -0.64222,8.25 -30.66373,0 -30.66372,0 -2.20579,2.98349 c -1.21318,1.64092 -3.54781,3.67747 -5.18806,4.52568 l -2.98226,1.54219 0,188.97432 0,188.97432 -2.5,0 -2.5,0 0,-188.91844 0,-188.91844 -3.39354,-2.09732 c -3.6044,-2.22765 -6.6089,-7.3318 -6.60272,-11.21693 0.005,-3.41057 3.43777,-8.5087 6.95204,-10.326 l 3.04422,-1.57423 0,-48.45527 0,-48.45527 -2.75,-0.56451 c -10.81656,-2.22042 -14.68184,-4.92812 -15.83882,-11.09537 l -0.63376,-3.37822 -23.38871,0 -23.38871,0 0,-3.5 0,-3.5 23.5,0 23.5,0 0,-3.09571 c 0,-3.69997 2.53996,-8.320852 5.41932,-9.859212 1.14437,-0.61141 4.10568,-1.70642 6.58068,-2.43336 3.3068,-0.97124 4.58473,-1.89046 4.81955,-3.46671 0.17575,-1.17976 0.73825,-2.14501 1.25,-2.14501 0.51175,0 0.93045,-2.79009 0.93045,-6.20019 l 0,-6.20019 -22.61789,-22.696139 c -13.4912,-13.53787 -22.41947,-23.24237 -22.12615,-24.04981 0.30789,-0.84755 8.76441,6.8606 22.61789,20.61628 l 22.12615,21.969939 0,-15.71994 0,-15.719949 2.5,0 2.5,0 0,23.999999 0,24 2.5,0 c 1.83333,0 2.5,0.53333 2.5,2 0,1.49043 -0.66667,2 -2.61658,2 -2.25147,0 -2.54992,0.34868 -2.13889,2.49886 0.42538,2.22522 0.0275,2.60979 -3.63342,3.51199 -12.63059,3.11267 -14.61111,4.273052 -14.61111,8.560582 l 0,2.42857 51.47432,0 51.47432,0 1.47457,-2.8515 c 3.37031,-6.517472 12.79596,-8.359302 18.44662,-3.60458 1.6628,1.39916 3.30265,3.42416 3.64411,4.5 0.60735,1.91358 1.96058,1.95608 62.28137,1.95608 l 61.66053,0 -8.45584,-8.500002 c -5.66196,-5.69153 -9.20656,-8.5 -10.72792,-8.5 -1.68766,0 -2.27208,-0.57711 -2.27208,-2.24364 0,-1.60582 -8.16509,-10.41237 -28.72177,-30.97823 -19.14579,-19.154329 -28.3884,-29.067959 -27.72188,-29.734479 0.66652,-0.66652 10.99058,8.99496 30.96552,28.978229 29.90256,29.91503 29.97459,29.97812 34.22188,29.97812 3.58958,0 4.25625,0.31326 4.25625,2 0,1.40154 -0.66667,2 -2.22792,2 -1.81543,0 -0.66236,1.57374 6.22792,8.5 l 8.45584,8.500002 100.27208,0 c 100.1337,0 100.27208,-0.003 100.27208,-2.03212 0,-3.51619 2.72731,-8.743102 5.5151,-10.569732 1.47518,-0.96657 4.77526,-2.3212 7.33352,-3.01029 2.55826,-0.68908 4.08888,-1.28324 3.40138,-1.32037 -2.19153,-0.11833 -1.46335,-4.06749 0.75,-4.06749 1.78639,0 2,-0.66667 2,-6.24202 l 0,-6.24202 -22.62888,-22.644929 c -14.80184,-14.81235 -22.36683,-23.06895 -21.87125,-23.87081 0.50638,-0.81935 8.01054,6.02142 22.62888,20.62843 l 21.87125,21.854299 0,-15.74147 0,-15.741479 3,0 3,0 0,23.999999 c 0,15.33333 0.36111,24 1,24 0.55,0 1,0.9 1,2 0,1.1 -0.42011,2 -0.93358,2 -0.51347,0 -1.07597,1.17907 -1.25,2.62015 -0.28521,2.3617 -1.0539,2.80679 -7.79311,4.5124 -8.17663,2.0694 -9.55611,2.998652 -10.56591,7.117452 l -0.67422,2.75 42.60841,0 42.60841,0 0,3.5 0,3.5 -20,0 -20,0 0,5 c 0,3.77778 -0.36667,5 -1.5,5 -1.13333,0 -1.5,-1.22222 -1.5,-5 l 0,-5 -20.5,0 c -19.75365,0 -20.5,0.072 -20.5,1.97695 0,2.76807 3.95713,5.05404 10.21999,5.90393 2.93188,0.39786 5.88179,1.06399 6.55535,1.48027 0.93984,0.58086 1.22466,12.4074 1.22466,50.85194 l 0,50.09505 3.88483,3.32528 c 6.57936,5.63168 6.23257,14.29854 -0.77169,19.28602 l -3.11314,2.21675 0,68.40885 0,68.40885 2.55111,1.67156 c 7.14324,4.68043 7.14324,16.06867 0,20.7491 l -2.55111,1.67156 0,50.47694 0,50.47695 -3,0 -3,0 0,-50.5 c 0,-47.4201 -0.10673,-50.50136 -1.75,-50.52224 -2.20742,-0.028 -5.48677,-2.66668 -7.73999,-6.22776 l -1.74003,-2.75 -81.88499,0 -81.88499,0 0,-35.01074 0,-35.01073 -42.75,0.26073 -42.75,0.26074 -0.26247,36.25 -0.26248,36.25 -18.32722,0 c -10.07997,0 -26.49935,0.29601 -36.48752,0.65781 l -18.16031,0.6578 0,86.8227 0,86.82269 21.53708,0.2695 21.53708,0.2695 -19.03209,20.5 -19.03209,20.5 8.74501,0.64411 c 4.80975,0.35426 12.90751,0.69176 17.99501,0.75 l 9.25,0.10589 0,3 0,3 -20.50666,0 -20.50667,0 0.25667,71.25 0.25666,71.25 96.99648,0.25501 96.99649,0.25501 -21.74649,-21.76334 c -19.39284,-19.40789 -23.58138,-24.24668 -20.98833,-24.24668 0.41699,0 11.10082,10.35 23.74185,23 l 22.98369,23 19.75816,0 19.75815,0 0,3 0,3 -135,0 -135,0 0,-2.97097 z m 152.47692,-466.20047 c 3.22958,-1.47149 4.29336,-5.3616 2.3953,-8.75927 -2.54594,-4.5574 -10.18763,-3.64509 -11.44544,1.36643 -0.94875,3.78011 1.41583,6.98287 6.27617,8.50089 0.11162,0.0349 1.35991,-0.46376 2.77397,-1.10805 z M -568.09658,182.97368 c 0.99319,-1.19672 0.99319,-1.80328 0,-3 -2.49896,-3.01106 -6.06097,-0.70723 -4.63837,3 0.31658,0.825 1.20962,1.5 1.98454,1.5 0.77492,0 1.96914,-0.675 2.65383,-1.5 z m -134,573.5 c 0,-4.66667 0.33333,-6 1.5,-6 1.16666,0 1.5,1.33333 1.5,6 0,4.66667 -0.33334,6 -1.5,6 -1.16667,0 -1.5,-1.33333 -1.5,-6 z m 520,-4.5 c 0,-5.11111 0.32051,-6.5 1.5,-6.5 1.17949,0 1.5,1.38889 1.5,6.5 0,5.11111 -0.32051,6.5 -1.5,6.5 -1.17949,0 -1.5,-1.38889 -1.5,-6.5 z m -520,-17.5 c 0,-4.66667 0.33333,-6 1.5,-6 1.16666,0 1.5,1.33333 1.5,6 0,4.66667 -0.33334,6 -1.5,6 -1.16667,0 -1.5,-1.33333 -1.5,-6 z m 520,-4 c 0,-4.66667 0.33333,-6 1.5,-6 1.16667,0 1.5,1.33333 1.5,6 0,4.66667 -0.33333,6 -1.5,6 -1.16667,0 -1.5,-1.33333 -1.5,-6 z m -236.8727,-0.096 c -4.26384,-3.97237 -5.32957,-10.56812 -2.62759,-16.26211 1.93614,-4.08012 4.71282,-5.75635 9.64825,-5.82447 4.10653,-0.0567 8.85204,3.08318 8.85204,5.85692 0,2.07596 -2.60462,1.55376 -4.19467,-0.84098 -1.92273,-2.89579 -7.17125,-2.91186 -10.05233,-0.0308 -1.64426,1.64426 -2.11839,3.29578 -2.05987,7.17512 0.0814,5.39435 1.3591,7.71148 5.01974,9.10325 2.83507,1.0779 7.01445,-0.64643 7.8353,-3.23269 0.61895,-1.95016 4.45183,-2.61424 4.45183,-0.77132 0,0.59231 -1.31538,2.39231 -2.92308,4 -3.72031,3.72032 -10.41784,4.11741 -13.94962,0.82705 z m -26.02081,-13.09056 c -0.49072,-1.27238 -3.64043,-9.18213 -6.99936,-17.57723 -3.35892,-8.39513 -6.10713,-15.48263 -6.10713,-15.75003 0,-0.2674 1.074,-0.48618 2.38666,-0.48618 2.16454,0 2.92419,1.44284 8.1627,15.50397 3.17682,8.52718 6.01006,15.26994 6.29608,14.98392 0.28602,-0.28602 3.04003,-7.1503 6.12003,-15.25396 4.70159,-12.37021 5.95569,-14.78519 7.81726,-15.05348 1.33456,-0.19234 2.21285,0.20577 2.20617,1 -0.006,0.72575 -2.87662,8.74455 -6.37892,17.81955 -6.23522,16.1564 -6.43283,16.50653 -9.48955,16.81341 -2.49382,0.25037 -3.30118,-0.15191 -4.01394,-2 z m -257.10649,-5.39677 c 0,-4.82011 0.33479,-6.4728 1.25,-6.17063 0.77398,0.25553 1.36337,2.76258 1.54771,6.58333 0.24274,5.03113 0.0119,6.17063 -1.25,6.17063 -1.24022,0 -1.54771,-1.30794 -1.54771,-6.58333 z m 520,-4 c 0,-4.82011 0.33479,-6.4728 1.25,-6.17063 0.77398,0.25553 1.36338,2.76258 1.54772,6.58333 0.24274,5.03113 0.0119,6.17063 -1.25,6.17063 -1.24023,0 -1.54772,-1.30794 -1.54772,-6.58333 z m -520,-17.91667 c 0,-5.11111 0.32051,-6.5 1.5,-6.5 1.17948,0 1.5,1.38889 1.5,6.5 0,5.11111 -0.32052,6.5 -1.5,6.5 -1.17949,0 -1.5,-1.38889 -1.5,-6.5 z m 520,-4 c 0,-5.11111 0.32051,-6.5 1.5,-6.5 1.17949,0 1.5,1.38889 1.5,6.5 0,5.11111 -0.32051,6.5 -1.5,6.5 -1.17949,0 -1.5,-1.38889 -1.5,-6.5 z m -520,-17 c 0,-5.11111 0.32051,-6.5 1.5,-6.5 1.17948,0 1.5,1.38889 1.5,6.5 0,5.11111 -0.32052,6.5 -1.5,6.5 -1.17949,0 -1.5,-1.38889 -1.5,-6.5 z m 520,-5 c 0,-5.11111 0.32051,-6.5 1.5,-6.5 1.17949,0 1.5,1.38889 1.5,6.5 0,5.11111 -0.32051,6.5 -1.5,6.5 -1.17949,0 -1.5,-1.38889 -1.5,-6.5 z m -520,-17 c 0,-5.11111 0.32051,-6.5 1.5,-6.5 1.17948,0 1.5,1.38889 1.5,6.5 0,5.11111 -0.32052,6.5 -1.5,6.5 -1.17949,0 -1.5,-1.38889 -1.5,-6.5 z m 520,-4 c 0,-5.11111 0.32051,-6.5 1.5,-6.5 1.17949,0 1.5,1.38889 1.5,6.5 0,5.11111 -0.32051,6.5 -1.5,6.5 -1.17949,0 -1.5,-1.38889 -1.5,-6.5 z m -520,-18 c 0,-5.11111 0.32051,-6.5 1.5,-6.5 1.17948,0 1.5,1.38889 1.5,6.5 0,5.11111 -0.32052,6.5 -1.5,6.5 -1.17949,0 -1.5,-1.38889 -1.5,-6.5 z m 520,-4 c 0,-5.11111 0.32051,-6.5 1.5,-6.5 1.17949,0 1.5,1.38889 1.5,6.5 0,5.11111 -0.32051,6.5 -1.5,6.5 -1.17949,0 -1.5,-1.38889 -1.5,-6.5 z m -520,-18 c 0,-5.11111 0.32051,-6.5 1.5,-6.5 1.17948,0 1.5,1.38889 1.5,6.5 0,5.11111 -0.32052,6.5 -1.5,6.5 -1.17949,0 -1.5,-1.38889 -1.5,-6.5 z m 236.79136,5.56984 c -7.55464,-2.43976 -12.54675,-9.29965 -13.50183,-18.55353 -1.34428,-13.02484 7.42884,-23.47239 19.71047,-23.47239 12.28163,0 21.05475,10.44755 19.71047,23.47239 -1.15449,11.18599 -7.78015,18.24407 -17.85192,19.01703 -2.9472,0.22619 -6.57744,0.0176 -8.06719,-0.4635 z m 12.79175,-5.6763 c 5.13976,-2.43898 7.66689,-7.30798 7.66689,-14.77176 0,-3.87621 -0.63357,-7.46284 -1.67355,-9.47394 -4.92626,-9.52634 -20.22799,-9.52372 -25.15513,0.004 -2.5382,4.90834 -2.33409,14.6349 0.39995,19.05866 3.88272,6.28237 11.82253,8.47565 18.76184,5.18273 z m 21.41689,-15.39354 0,-21 2.5,0 2.5,0 0,18.5 0,18.5 10,0 c 10,0 10,0 10,2.5 l 0,2.5 -12.5,0 -12.5,0 0,-21 z m 32,0 0,-21 15,0 15,0 0,2.46922 0,2.46922 -12.25,0.28078 -12.25,0.28078 0,6 0,6 11.75,0.28174 11.75,0.28173 0,2.46827 0,2.46826 -12,0 -12,0 0,7 0,7 13,0 13,0 0,2.5 0,2.5 -15.5,0 -15.5,0 0,-21 z m 39,-0.1486 0,-21.14861 11.37913,0.56042 c 7.41791,0.36533 12.4381,1.10804 14.42116,2.13352 9.86372,5.10072 12.44688,24.21392 4.54216,33.60813 -4.31994,5.13397 -7.09126,5.99514 -19.29279,5.99514 l -11.04966,0 0,-21.1486 z m 23.78321,14.5879 c 6.97854,-4.88797 7.79909,-20.31853 1.41972,-26.69791 -2.8559,-2.85589 -3.48199,-3.02847 -11.36268,-3.13191 l -8.34025,-0.10948 -0.27539,15.75 -0.2754,15.75 8.30289,0 c 5.90541,0 8.94629,-0.45066 10.53111,-1.5607 z m 154.21679,-2.9393 c 0,-5.11111 0.32051,-6.5 1.5,-6.5 1.17949,0 1.5,1.38889 1.5,6.5 0,5.11111 -0.32051,6.5 -1.5,6.5 -1.17949,0 -1.5,-1.38889 -1.5,-6.5 z m -520,-18 c 0,-5.11111 0.32051,-6.5 1.5,-6.5 1.17948,0 1.5,1.38889 1.5,6.5 0,5.11111 -0.32052,6.5 -1.5,6.5 -1.17949,0 -1.5,-1.38889 -1.5,-6.5 z m 520,-4 c 0,-5.11111 0.32051,-6.5 1.5,-6.5 1.17949,0 1.5,1.38889 1.5,6.5 0,5.11111 -0.32051,6.5 -1.5,6.5 -1.17949,0 -1.5,-1.38889 -1.5,-6.5 z m -520,-18 c 0,-5.11111 0.32051,-6.5 1.5,-6.5 1.17948,0 1.5,1.38889 1.5,6.5 0,5.11111 -0.32052,6.5 -1.5,6.5 -1.17949,0 -1.5,-1.38889 -1.5,-6.5 z m 520,-4 c 0,-5.11111 0.32051,-6.5 1.5,-6.5 1.17949,0 1.5,1.38889 1.5,6.5 0,5.11111 -0.32051,6.5 -1.5,6.5 -1.17949,0 -1.5,-1.38889 -1.5,-6.5 z m -520,-18 c 0,-5.11111 0.32051,-6.5 1.5,-6.5 1.17948,0 1.5,1.38889 1.5,6.5 0,5.11111 -0.32052,6.5 -1.5,6.5 -1.17949,0 -1.5,-1.38889 -1.5,-6.5 z m 520,-4 c 0,-5.11111 0.32051,-6.5 1.5,-6.5 1.17949,0 1.5,1.38889 1.5,6.5 0,5.11111 -0.32051,6.5 -1.5,6.5 -1.17949,0 -1.5,-1.38889 -1.5,-6.5 z m -520,-18 c 0,-5.11111 0.32051,-6.5 1.5,-6.5 1.17948,0 1.5,1.38889 1.5,6.5 0,5.11111 -0.32052,6.5 -1.5,6.5 -1.17949,0 -1.5,-1.38889 -1.5,-6.5 z m 520,-4 c 0,-5.11111 0.32051,-6.5 1.5,-6.5 1.17949,0 1.5,1.38889 1.5,6.5 0,5.11111 -0.32051,6.5 -1.5,6.5 -1.17949,0 -1.5,-1.38889 -1.5,-6.5 z m -520,-17 c 0,-5.11111 0.32051,-6.5 1.5,-6.5 1.17948,0 1.5,1.38889 1.5,6.5 0,5.11111 -0.32052,6.5 -1.5,6.5 -1.17949,0 -1.5,-1.38889 -1.5,-6.5 z m 520,-5 c 0,-5.11111 0.32051,-6.5 1.5,-6.5 1.17949,0 1.5,1.38889 1.5,6.5 0,5.11111 -0.32051,6.5 -1.5,6.5 -1.17949,0 -1.5,-1.38889 -1.5,-6.5 z m -520,-17 c 0,-5.11111 0.32051,-6.5 1.5,-6.5 1.17948,0 1.5,1.38889 1.5,6.5 0,5.11111 -0.32052,6.5 -1.5,6.5 -1.17949,0 -1.5,-1.38889 -1.5,-6.5 z m 520,-4 c 0,-5.11111 0.32051,-6.5 1.5,-6.5 1.17949,0 1.5,1.38889 1.5,6.5 0,5.11111 -0.32051,6.5 -1.5,6.5 -1.17949,0 -1.5,-1.38889 -1.5,-6.5 z m -214,-9.10658 c 0,-0.88362 3.15,-4.85519 7,-8.82571 7.02623,-7.24618 8.34228,-10.20883 5.56047,-12.51752 -2.2495,-1.86692 -6.9161,-0.87927 -8.04921,1.70356 -1.08609,2.47564 -2.83715,2.47793 -3.31707,0.004 -0.51666,-2.66292 3.78058,-5.75808 7.99437,-5.75808 5.02299,0 7.81144,2.75866 7.81144,7.72799 0,3.27597 -0.747,4.42787 -6.16065,9.5 l -6.16066,5.77234 6.66066,0 c 5.99398,0 6.66065,0.20018 6.66065,2 0,1.85185 -0.66667,2 -9,2 -7.59869,0 -9,-0.25015 -9,-1.60658 z m -306,-8.89342 c 0,-5.11111 0.32051,-6.5 1.5,-6.5 1.17948,0 1.5,1.38889 1.5,6.5 0,5.11111 -0.32052,6.5 -1.5,6.5 -1.17949,0 -1.5,-1.38889 -1.5,-6.5 z m 520,-4 c 0,-5.11111 0.32051,-6.5 1.5,-6.5 1.17949,0 1.5,1.38889 1.5,6.5 0,5.11111 -0.32051,6.5 -1.5,6.5 -1.17949,0 -1.5,-1.38889 -1.5,-6.5 z m -281,-15.5 0,-13 -5,0 c -4.33333,0 -5,-0.26667 -5,-2 0,-1.88889 0.66667,-2 12,-2 11.33333,0 12,0.11111 12,2 0,1.73333 -0.66667,2 -5,2 l -5,0 0,13 c 0,12.33333 -0.10256,13 -2,13 -1.89744,0 -2,-0.66667 -2,-13 z m 19,-2 0,-15 9.5,0 c 8.83333,0 9.5,0.14035 9.5,2 0,1.83333 -0.66667,2 -8,2 l -8,0 0,4.5 0,4.5 7,0 c 6.33333,0 7,0.19048 7,2 0,1.80952 -0.66667,2 -7,2 l -7,0 0,6.5 c 0,5.11111 -0.32051,6.5 -1.5,6.5 -1.26667,0 -1.5,-2.33333 -1.5,-15 z m 32,2 0,-13 -5,0 c -4.33333,0 -5,-0.26667 -5,-2 0,-1.88889 0.66667,-2 12,-2 11.33333,0 12,0.11111 12,2 0,1.73333 -0.66667,2 -5,2 l -5,0 0,13 c 0,12.33333 -0.10256,13 -2,13 -1.89744,0 -2,-0.66667 -2,-13 z m -290,-2.5 c 0,-5.11111 0.32051,-6.5 1.5,-6.5 1.17948,0 1.5,1.38889 1.5,6.5 0,5.11111 -0.32052,6.5 -1.5,6.5 -1.17949,0 -1.5,-1.38889 -1.5,-6.5 z m 520,-4 c 0,-5.11111 0.32051,-6.5 1.5,-6.5 1.17949,0 1.5,1.38889 1.5,6.5 0,5.11111 -0.32051,6.5 -1.5,6.5 -1.17949,0 -1.5,-1.38889 -1.5,-6.5 z m -520,-18 c 0,-5.11111 0.32051,-6.5 1.5,-6.5 1.17948,0 1.5,1.38889 1.5,6.5 0,5.11111 -0.32052,6.5 -1.5,6.5 -1.17949,0 -1.5,-1.38889 -1.5,-6.5 z m 520,-4 c 0,-5.11111 0.32051,-6.5 1.5,-6.5 1.17949,0 1.5,1.38889 1.5,6.5 0,5.11111 -0.32051,6.5 -1.5,6.5 -1.17949,0 -1.5,-1.38889 -1.5,-6.5 z m -520,-18 c 0,-5.11111 0.32051,-6.5 1.5,-6.5 1.17948,0 1.5,1.38889 1.5,6.5 0,5.11111 -0.32052,6.5 -1.5,6.5 -1.17949,0 -1.5,-1.38889 -1.5,-6.5 z m 171,-10.5 0,-15 7.92327,0 c 7.01984,0 8.26649,0.28879 10.93325,2.53273 3.83201,3.22441 5.54754,8.40783 4.81889,14.56011 -1.1119,9.38822 -5.78575,12.90716 -17.14329,12.90716 l -6.53212,0 0,-15 z m 16.97456,9.02544 c 2.58065,-2.58065 3.39312,-6.07105 2.74716,-11.80196 -0.7502,-6.65578 -4.15159,-9.42442 -11.08372,-9.02186 l -5.138,0.29838 -0.28275,11.25 -0.28275,11.25 6.03275,0 c 4.67351,0 6.47764,-0.44489 8.00731,-1.97456 z m 167.38244,4.98298 c -2.58476,-1.04308 -5.357,-4.78508 -5.357,-7.23093 0,-2.70292 3.66704,-2.24024 4.36762,0.55107 1.68696,6.72139 15.22588,5.61944 14.43947,-1.17525 -0.26895,-2.32379 -1.16541,-2.93162 -7.2184,-4.8943 -8.36502,-2.71237 -10.58869,-4.54773 -10.58869,-8.73968 0,-5.91439 6.6658,-9.49423 14.00085,-7.5191 5.64111,1.51899 9.69102,7.99977 4.99915,7.99977 -1.1,0 -2,-0.65917 -2,-1.46482 0,-3.83415 -9.90453,-4.93727 -12.39574,-1.38057 -2.34198,3.34365 -0.49579,5.30722 6.86276,7.29909 10.3664,2.80605 13.46766,8.76546 7.6099,14.62322 -2.45108,2.45108 -3.70249,2.91284 -7.75,2.85969 -2.6548,-0.0349 -5.79127,-0.45255 -6.96992,-0.92819 z m 164.643,-7.50842 c 0,-5.11111 0.32051,-6.5 1.5,-6.5 1.17949,0 1.5,1.38889 1.5,6.5 0,5.11111 -0.32051,6.5 -1.5,6.5 -1.17949,0 -1.5,-1.38889 -1.5,-6.5 z m -520,-18 c 0,-5.11111 0.32051,-6.5 1.5,-6.5 1.17948,0 1.5,1.38889 1.5,6.5 0,5.11111 -0.32052,6.5 -1.5,6.5 -1.17949,0 -1.5,-1.38889 -1.5,-6.5 z m 520,-4 c 0,-5.11111 0.32051,-6.5 1.5,-6.5 1.17949,0 1.5,1.38889 1.5,6.5 0,5.11111 -0.32051,6.5 -1.5,6.5 -1.17949,0 -1.5,-1.38889 -1.5,-6.5 z m -520,-18 c 0,-5.11111 0.32051,-6.5 1.5,-6.5 1.17948,0 1.5,1.38889 1.5,6.5 0,5.11111 -0.32052,6.5 -1.5,6.5 -1.17949,0 -1.5,-1.38889 -1.5,-6.5 z m 520,-4 c 0,-5.11111 0.32051,-6.5 1.5,-6.5 1.17949,0 1.5,1.38889 1.5,6.5 0,5.11111 -0.32051,6.5 -1.5,6.5 -1.17949,0 -1.5,-1.38889 -1.5,-6.5 z m -520,-17 c 0,-5.11111 0.32051,-6.5 1.5,-6.5 1.17948,0 1.5,1.38889 1.5,6.5 0,5.11111 -0.32052,6.5 -1.5,6.5 -1.17949,0 -1.5,-1.38889 -1.5,-6.5 z m 520,-5 c 0,-5.11111 0.32051,-6.5 1.5,-6.5 1.17949,0 1.5,1.38889 1.5,6.5 0,5.11111 -0.32051,6.5 -1.5,6.5 -1.17949,0 -1.5,-1.38889 -1.5,-6.5 z m -520,-17 c 0,-5.11111 0.32051,-6.5 1.5,-6.5 1.17948,0 1.5,1.38889 1.5,6.5 0,5.11111 -0.32052,6.5 -1.5,6.5 -1.17949,0 -1.5,-1.38889 -1.5,-6.5 z m 174,-4.5 c 0,-5.5 -0.24083,-10 -0.53518,-10 -0.29435,0 -1.64435,0.72675 -3,1.61501 -4.09718,2.68457 -2.97983,-0.44678 1.70157,-4.76862 2.29151,-2.11551 4.31651,-3.84639 4.5,-3.84639 0.18349,0 0.33361,6.075 0.33361,13.5 0,11.33333 -0.24074,13.5 -1.5,13.5 -1.23333,0 -1.5,-1.77778 -1.5,-10 z m 346,0.5 c 0,-5.11111 0.32051,-6.5 1.5,-6.5 1.17949,0 1.5,1.38889 1.5,6.5 0,5.11111 -0.32051,6.5 -1.5,6.5 -1.17949,0 -1.5,-1.38889 -1.5,-6.5 z m -422.22097,-19.75 -0.27903,-13.25 -4.75,-0.30479 c -3.33492,-0.21399 -4.75,-0.73534 -4.75,-1.75 0,-1.1765 2.13822,-1.44521 11.5,-1.44521 9.36178,0 11.5,0.26871 11.5,1.44521 0,1.01466 -1.41508,1.53601 -4.75,1.75 l -4.75,0.30479 -0.27903,13.25 c -0.22627,10.74503 -0.55163,13.25 -1.72097,13.25 -1.16934,0 -1.4947,-2.50497 -1.72097,-13.25 z m 18.22097,-1.75 0,-15 10,0 c 8.22222,0 10,0.26667 10,1.5 0,1.20833 -1.55556,1.5 -8,1.5 l -8,0 0,5 0,5 6.5,0 c 5.11111,0 6.5,0.32051 6.5,1.5 0,1.17949 -1.38889,1.5 -6.5,1.5 l -6.5,0 0,7 c 0,6.33333 -0.19048,7 -2,7 -1.91111,0 -2,-0.66667 -2,-15 z m 32.77903,1.75 -0.27903,-13.25 -4.75,-0.30479 c -3.33492,-0.21399 -4.75,-0.73534 -4.75,-1.75 0,-1.1765 2.13822,-1.44521 11.5,-1.44521 9.36178,0 11.5,0.26871 11.5,1.44521 0,1.01466 -1.41508,1.53601 -4.75,1.75 l -4.75,0.30479 -0.27903,13.25 c -0.22627,10.74503 -0.55163,13.25 -1.72097,13.25 -1.16934,0 -1.4947,-2.50497 -1.72097,-13.25 z m -148.77903,1.75 c 0,-5.11111 0.32051,-6.5 1.5,-6.5 1.17948,0 1.5,1.38889 1.5,6.5 0,5.11111 -0.32052,6.5 -1.5,6.5 -1.17949,0 -1.5,-1.38889 -1.5,-6.5 z m 520,-4 c 0,-5.11111 0.32051,-6.5 1.5,-6.5 1.17949,0 1.5,1.38889 1.5,6.5 0,5.11111 -0.32051,6.5 -1.5,6.5 -1.17949,0 -1.5,-1.38889 -1.5,-6.5 z m -520,-18 c 0,-5.11111 0.32051,-6.5 1.5,-6.5 1.17948,0 1.5,1.38889 1.5,6.5 0,5.11111 -0.32052,6.5 -1.5,6.5 -1.17949,0 -1.5,-1.38889 -1.5,-6.5 z m 520,-4 c 0,-5.11111 0.32051,-6.5 1.5,-6.5 1.17949,0 1.5,1.38889 1.5,6.5 0,5.11111 -0.32051,6.5 -1.5,6.5 -1.17949,0 -1.5,-1.38889 -1.5,-6.5 z m -520,-18 c 0,-5.11111 0.32051,-6.5 1.5,-6.5 1.17948,0 1.5,1.38889 1.5,6.5 0,5.11111 -0.32052,6.5 -1.5,6.5 -1.17949,0 -1.5,-1.38889 -1.5,-6.5 z m 520,-4 c 0,-5.11111 0.32051,-6.5 1.5,-6.5 1.17949,0 1.5,1.38889 1.5,6.5 0,5.11111 -0.32051,6.5 -1.5,6.5 -1.17949,0 -1.5,-1.38889 -1.5,-6.5 z m -520,-18 c 0,-5.11111 0.32051,-6.5 1.5,-6.5 1.17948,0 1.5,1.38889 1.5,6.5 0,5.11111 -0.32052,6.5 -1.5,6.5 -1.17949,0 -1.5,-1.38889 -1.5,-6.5 z m 520,-4 c 0,-5.11111 0.32051,-6.5 1.5,-6.5 1.17949,0 1.5,1.38889 1.5,6.5 0,5.11111 -0.32051,6.5 -1.5,6.5 -1.17949,0 -1.5,-1.38889 -1.5,-6.5 z m -520,-18 c 0,-5.11111 0.32051,-6.5 1.5,-6.5 1.17948,0 1.5,1.38889 1.5,6.5 0,5.11111 -0.32052,6.5 -1.5,6.5 -1.17949,0 -1.5,-1.38889 -1.5,-6.5 z m 310.39966,1.10558 c -3.01608,-1.34559 -4.39966,-3.29135 -4.39966,-6.18737 0,-2.32604 2.59257,-1.60785 3.80548,1.0542 2.05866,4.51828 11.19452,4.25017 11.19452,-0.32853 0,-2.49064 -1.43376,-3.53152 -7.66273,-5.56294 -2.8395,-0.92604 -5.427,-2.37238 -5.75,-3.21411 -2.06007,-5.36846 1.14158,-9.36683 7.50038,-9.36683 3.90374,0 8.91235,3.13171 8.91235,5.57258 0,2.12291 -2.76959,1.72645 -4,-0.57258 -1.52505,-2.84958 -8.59347,-2.85624 -9.49716,-0.009 -0.90055,2.8374 0.015,3.80533 4.78938,5.06317 6.61597,1.74303 8.70778,3.49999 8.70778,7.31385 0,1.89886 -0.74968,3.99469 -1.75,4.89233 -2.57545,2.31109 -8.2432,2.95446 -11.85034,1.34518 z m 209.60034,-5.10558 c 0,-5.11111 0.32051,-6.5 1.5,-6.5 1.17949,0 1.5,1.38889 1.5,6.5 0,5.11111 -0.32051,6.5 -1.5,6.5 -1.17949,0 -1.5,-1.38889 -1.5,-6.5 z m -241,-8.25155 c -6.86874,-3.43132 -10.32424,-16.74999 -6.63597,-25.57726 4.21213,-10.08105 18.29337,-12.62079 25.10324,-4.52771 3.14492,3.73752 3.24742,5.85853 0.28273,5.8502 -1.43871,-0.004 -2.8517,-1.06392 -3.91873,-2.93944 -3.24556,-5.70469 -11.46211,-5.15666 -16.08772,1.07301 -2.34584,3.15934 -2.76662,12.98862 -0.76309,17.82559 3.29476,7.95424 14.40739,7.99919 18.50523,0.0748 1.09119,-2.11014 1.99914,-2.71366 3.49429,-2.32267 2.42662,0.63458 2.49946,1.46717 0.47147,5.38887 -3.33093,6.44132 -12.99824,8.87786 -20.45145,5.15457 z m -279,-9.74845 c 0,-5.11111 0.32051,-6.5 1.5,-6.5 1.17948,0 1.5,1.38889 1.5,6.5 0,5.11111 -0.32052,6.5 -1.5,6.5 -1.17949,0 -1.5,-1.38889 -1.5,-6.5 z m 520,-4 c 0,-5.11111 0.32051,-6.5 1.5,-6.5 1.17949,0 1.5,1.38889 1.5,6.5 0,5.11111 -0.32051,6.5 -1.5,6.5 -1.17949,0 -1.5,-1.38889 -1.5,-6.5 z m -520,-17 c 0,-5.11111 0.32051,-6.5 1.5,-6.5 1.17948,0 1.5,1.38889 1.5,6.5 0,5.11111 -0.32052,6.5 -1.5,6.5 -1.17949,0 -1.5,-1.38889 -1.5,-6.5 z m 520,-5 c 0,-5.11111 0.32051,-6.5 1.5,-6.5 1.17949,0 1.5,1.38889 1.5,6.5 0,5.11111 -0.32051,6.5 -1.5,6.5 -1.17949,0 -1.5,-1.38889 -1.5,-6.5 z m -520,-17 c 0,-5.11111 0.32051,-6.5 1.5,-6.5 1.17948,0 1.5,1.38889 1.5,6.5 0,5.11111 -0.32052,6.5 -1.5,6.5 -1.17949,0 -1.5,-1.38889 -1.5,-6.5 z m 0,-22.000002 c 0,-5.11111 0.32051,-6.5 1.5,-6.5 1.17948,0 1.5,1.38889 1.5,6.5 0,5.111112 -0.32052,6.500002 -1.5,6.500002 -1.17949,0 -1.5,-1.38889 -1.5,-6.500002 z m 520,-3.5 0,-6 -5.5,0 c -4.83333,0 -5.5,-0.24242 -5.5,-2 0,-1.76358 0.66667,-2 5.63976,-2 7.12484,0 8.28574,1.35906 8.32844,9.75 0.0249,4.903022 -0.29147,6.250002 -1.4682,6.250002 -1.16667,0 -1.5,-1.33333 -1.5,-6.000002 z m -514,-8 c 0,-1.77778 0.66666,-2 6,-2 5.33333,0 6,0.22222 6,2 0,1.77778 -0.66667,2 -6,2 -5.33334,0 -6,-0.22222 -6,-2 z m 43,0 c 0,-1.79487 0.66667,-2 6.5,-2 5.83333,0 6.5,0.20513 6.5,2 0,1.79487 -0.66667,2 -6.5,2 -5.83333,0 -6.5,-0.20513 -6.5,-2 z m 22,0 c 0,-1.79487 0.66667,-2 6.5,-2 5.83333,0 6.5,0.20513 6.5,2 0,1.79487 -0.66667,2 -6.5,2 -5.83333,0 -6.5,-0.20513 -6.5,-2 z m 22,0 c 0,-1.79487 0.66667,-2 6.5,-2 5.83333,0 6.5,0.20513 6.5,2 0,1.79487 -0.66667,2 -6.5,2 -5.83333,0 -6.5,-0.20513 -6.5,-2 z m 22,0.0477 c 0,-1.85593 0.61561,-2.0477 6.57332,-2.0477 5.72064,0 6.53008,0.22701 6.23996,1.75 -0.26742,1.40383 -1.56771,1.80889 -6.57332,2.04772 -5.71869,0.27284 -6.23996,0.12665 -6.23996,-1.75 z m 22,-0.0477 c 0,-1.77778 0.66667,-2 6,-2 5.33333,0 6,0.22222 6,2 0,1.77778 -0.66667,2 -6,2 -5.33333,0 -6,-0.22222 -6,-2 z m 22,0 c 0,-1.77778 0.66667,-2 6,-2 5.33333,0 6,0.22222 6,2 0,1.77778 -0.66667,2 -6,2 -5.33333,0 -6,-0.22222 -6,-2 z m 22,0 c 0,-1.77778 0.66667,-2 6,-2 5.33333,0 6,0.22222 6,2 0,1.77778 -0.66667,2 -6,2 -5.33333,0 -6,-0.22222 -6,-2 z m 22,0 c 0,-1.77778 0.66667,-2 6,-2 5.33333,0 6,0.22222 6,2 0,1.77778 -0.66667,2 -6,2 -5.33333,0 -6,-0.22222 -6,-2 z m 21,0 c 0,-1.79487 0.66667,-2 6.5,-2 5.83333,0 6.5,0.20513 6.5,2 0,1.79487 -0.66667,2 -6.5,2 -5.83333,0 -6.5,-0.20513 -6.5,-2 z m 44,0 c 0,-1.79487 0.66667,-2 6.5,-2 5.83333,0 6.5,0.20513 6.5,2 0,1.79487 -0.66667,2 -6.5,2 -5.83333,0 -6.5,-0.20513 -6.5,-2 z m 22,0.0477 c 0,-1.85593 0.61561,-2.0477 6.57332,-2.0477 5.72064,0 6.53008,0.22701 6.23996,1.75 -0.26742,1.40383 -1.56771,1.80889 -6.57332,2.04772 -5.71869,0.27284 -6.23996,0.12665 -6.23996,-1.75 z m 22,-0.0477 c 0,-1.77778 0.66667,-2 6,-2 5.33333,0 6,0.22222 6,2 0,1.77778 -0.66667,2 -6,2 -5.33333,0 -6,-0.22222 -6,-2 z m 22,0 c 0,-1.77778 0.66667,-2 6,-2 5.33333,0 6,0.22222 6,2 0,1.77778 -0.66667,2 -6,2 -5.33333,0 -6,-0.22222 -6,-2 z m 22,0 c 0,-1.77778 0.66667,-2 6,-2 5.33333,0 6,0.22222 6,2 0,1.77778 -0.66667,2 -6,2 -5.33333,0 -6,-0.22222 -6,-2 z m 22,0 c 0,-1.77778 0.66667,-2 6,-2 5.33333,0 6,0.22222 6,2 0,1.77778 -0.66667,2 -6,2 -5.33333,0 -6,-0.22222 -6,-2 z m 21,0 c 0,-1.79487 0.66667,-2 6.5,-2 5.83333,0 6.5,0.20513 6.5,2 0,1.79487 -0.66667,2 -6.5,2 -5.83333,0 -6.5,-0.20513 -6.5,-2 z m 22,0 c 0,-1.79487 0.66667,-2 6.5,-2 5.83333,0 6.5,0.20513 6.5,2 0,1.79487 -0.66667,2 -6.5,2 -5.83333,0 -6.5,-0.20513 -6.5,-2 z m 22,0 c 0,-1.79487 0.66667,-2 6.5,-2 5.83333,0 6.5,0.20513 6.5,2 0,1.79487 -0.66667,2 -6.5,2 -5.83333,0 -6.5,-0.20513 -6.5,-2 z m 22,0.0477 c 0,-1.85593 0.61561,-2.0477 6.57332,-2.0477 5.72064,0 6.53008,0.22701 6.23996,1.75 -0.26742,1.40383 -1.56771,1.80889 -6.57332,2.04772 -5.71869,0.27284 -6.23996,0.12665 -6.23996,-1.75 z m -491,-77.047699 0,-12.00000015 6.9111,0 c 6.48968,0 7.06898,0.18761 9.5,3.07671995 2.02567,2.40737 2.5889,4.15862 2.5889,8.0496602 0,9.40051 -3.95843,12.85388 -14.75,12.86804 l -4.25,0.006 0,-12 z m 13.54545,6.54545 c 1.849,-1.849 2.45455,-3.52103 2.45455,-6.77749 0,-6.5313702 -2.05516,-8.7679602 -8.05671,-8.7679602 l -4.94329,0 0,9.0000002 0,9 4.04545,0 c 2.96184,0 4.70293,-0.65747 6.5,-2.45455 z m 7.44208,4.70455 c -0.007,-0.4125 1.90565,-5.81234 4.25,-11.99965 3.60461,-9.5133902 4.59367,-11.24970015 6.40842,-11.25000015 1.80357,-2.9e-4 2.88054,1.83529995 6.75001,11.50472015 2.53222,6.32779 4.60404,11.72779 4.60404,12 0,0.27221 -0.7112,0.49493 -1.58045,0.49493 -0.91531,0 -2.2417,-1.68341 -3.15169,-4 -1.5371,-3.9131 -1.67832,-4 -6.5,-4 -4.82167,0 -4.96289,0.0869 -6.5,4 -0.86418,2.2 -2.17798,4 -2.91955,4 -0.74157,0 -1.35392,-0.3375 -1.36078,-0.75 z m 14.01247,-11.22976 c 0,-0.53887 -0.74386,-2.8388602 -1.65302,-5.1110802 l -1.65303,-4.13131 -1.84616,4.86107 c -1.01539,2.6736 -1.84653,4.9735802 -1.84698,5.1110802 -4.5e-4,0.1375 1.57419,0.25 3.49919,0.25 1.925,0 3.5,-0.44089 3.5,-0.97976 z m 17,1.47976 0,-10.5000002 -4,0 c -2.88889,0 -4,-0.41667 -4,-1.49999995 0,-1.22807 1.72222,-1.5 9.5,-1.5 7.77778,0 9.5,0.27193 9.5,1.5 0,1.08332995 -1.11111,1.49999995 -4,1.49999995 l -4,0 0,10.5000002 c 0,8.66667 -0.2619,10.5 -1.5,10.5 -1.2381,0 -1.5,-1.83333 -1.5,-10.5 z m 11.98754,9.75 c -0.007,-0.4125 1.90564,-5.81234 4.25,-11.99965 3.6046,-9.5133902 4.59366,-11.24970015 6.40842,-11.25000015 1.80356,-2.9e-4 2.88053,1.83529995 6.75,11.50472015 2.53222,6.32779 4.60404,11.72779 4.60404,12 0,0.27221 -0.7112,0.49493 -1.58045,0.49493 -0.91531,0 -2.2417,-1.68341 -3.15169,-4 -1.5371,-3.9131 -1.67832,-4 -6.5,-4 -4.82167,0 -4.96289,0.0869 -6.5,4 -0.86418,2.2 -2.17798,4 -2.91955,4 -0.74157,0 -1.35392,-0.3375 -1.36077,-0.75 z m 14.01246,-11.22976 c 0,-0.53887 -0.74386,-2.8388602 -1.65302,-5.1110802 l -1.65303,-4.13131 -1.84616,4.86107 c -1.01539,2.6736 -1.84653,4.9735802 -1.84698,5.1110802 -4.4e-4,0.1375 1.57419,0.25 3.49919,0.25 1.925,0 3.5,-0.44089 3.5,-0.97976 z m 111.92308,9.05668 c -3.41683,-3.41683 -3.71867,-5.07692 -0.92308,-5.07692 1.1,0 2,0.65917 2,1.46482 0,3.35041 7.64177,4.75055 10.47337,1.91895 2.35282,-2.35282 0.0293,-5.36697 -5.36509,-6.95974 -2.34883,-0.69353 -5.13408,-2.0423902 -6.18944,-2.9974802 -6.42417,-5.81379 5.39821,-13.91436 12.33116,-8.44918995 2.7042,2.13168995 3.71147,5.02263995 1.75,5.02263995 -0.55,0 -1.9,-0.9 -3,-2 -2.39607,-2.39607 -6.26347,-2.59366995 -8.42659,-0.43055 -2.44236,2.44236 -0.40949,4.83817 5.35989,6.31682 7.8896,2.0220402 10.28107,6.9902702 5.61215,11.6591802 -3.63106,3.63107 -9.73263,3.42121 -13.62237,-0.46853 z m 21.07692,-9.07692 0,-12.00000015 8.5,0 c 6.88889,0 8.5,0.28431 8.5,1.5 0,1.19047995 -1.44444,1.49999995 -7,1.49999995 l -7,0 0,3.5 0,3.5 6.5,0 c 5.11111,0 6.5,0.32051 6.5,1.5000002 0,1.17949 -1.38889,1.5 -6.5,1.5 l -6.5,0 0,4 0,4 7,0 c 5.55556,0 7,0.30952 7,1.5 0,1.21569 -1.61111,1.5 -8.5,1.5 l -8.5,0 0,-12 z m 22,0 c 0,-9.8726502 0.25972,-12.00000015 1.46502,-12.00000015 1.17286,0 1.52184,2.04401995 1.75,10.24999995 l 0.28498,10.2500002 5.75,0.2999 c 4.21862,0.22003 5.75,0.68611 5.75,1.75 0,1.1379 -1.61471,1.4501 -7.5,1.4501 l -7.5,0 0,-12 z m 19,0 0,-12.00000015 8.5,0 c 6.88889,0 8.5,0.28431 8.5,1.5 0,1.19047995 -1.44444,1.49999995 -7,1.49999995 l -7,0 0,3.5 0,3.5 6.5,0 c 5.11111,0 6.5,0.32051 6.5,1.5000002 0,1.17949 -1.38889,1.5 -6.5,1.5 l -6.5,0 0,4 0,4 7,0 c 5.55556,0 7,0.30952 7,1.5 0,1.21569 -1.61111,1.5 -8.5,1.5 l -8.5,0 0,-12 z m 24.99662,9.15046 c -7.49675,-7.49674 -3.00146,-22.1307802 6.80304,-22.1467202 5.24114,-0.008 10.685,4.93365 8.16603,7.41348 -0.79301,0.78069 -1.66242,0.31554 -3.11619,-1.66722 -2.12699,-2.90095 -5.47368,-3.55668995 -8.87149,-1.73823 -2.71311,1.45201 -4.1745,7.5448102 -2.92376,12.1897002 1.72357,6.40083 8.28153,7.96853 12.04423,2.87919 2.34046,-3.16563 4.99667,-3.1605 4.16807,0.008 -0.84264,3.22232 -5.15429,5.91134 -9.47833,5.91134 -3.00048,0 -4.62269,-0.68063 -6.7916,-2.84954 z m 27.00338,-7.65046 0,-10.5000002 -4,0 c -2.88889,0 -4,-0.41667 -4,-1.49999995 0,-1.22807 1.72222,-1.5 9.5,-1.5 7.77778,0 9.5,0.27193 9.5,1.5 0,1.08332995 -1.11111,1.49999995 -4,1.49999995 l -4,0 0,10.5000002 c 0,8.66667 -0.2619,10.5 -1.5,10.5 -1.2381,0 -1.5,-1.83333 -1.5,-10.5 z m 15,-1.5 c 0,-10.0000002 0.25,-12.00000015 1.5,-12.00000015 1.25,0 1.5,1.99999995 1.5,12.00000015 0,10 -0.25,12 -1.5,12 -1.25,0 -1.5,-2 -1.5,-12 z m 13.30447,10.04408 c -5.88767,-3.58993 -6.91981,-14.5196502 -1.84992,-19.5895402 5.26956,-5.26956 15.32767,-3.61336 18.08144,2.97735 5.07775,12.1527602 -5.60839,23.0895302 -16.23152,16.6121902 z m 11.68788,-3.53594 c 3.50891,-3.73506 3.31361,-10.9880502 -0.38145,-14.1664002 -1.49733,-1.28796 -3.79724,-2.34174 -5.1109,-2.34174 -1.31366,0 -3.61357,1.05378 -5.1109,2.34174 -2.23975,1.92655 -2.72243,3.16908 -2.72243,7.0081402 0,5.85132 3.08361,9.65012 7.83333,9.65012 2.06575,0 3.95782,-0.85843 5.49235,-2.49186 z m 10.00765,-6.50814 c 0,-11.32151015 0.11275,-12.00000015 1.99411,-12.00000015 1.40166,0 3.70415,2.59958995 7.75,8.74999995 l 5.75589,8.7500002 0.28893,-8.7500002 c 0.22704,-6.87565 0.60191,-8.74999995 1.75,-8.74999995 1.20075,0 1.46107,2.15112995 1.46107,12.07332015 0,10.95721 -0.16178,12.04288 -1.75,11.74397 -0.9625,-0.18114 -4.225,-4.02363 -7.25,-8.53887 -3.025,-4.51524 -5.8375,-8.2250202 -6.25,-8.2439702 -0.4125,-0.0189 -0.75,3.7905502 -0.75,8.4655502 0,6.88889 -0.28431,8.5 -1.5,8.5 -1.25,0 -1.5,-2 -1.5,-12 z m 118,0 0,-12.00000015 6.56574,0 c 7.85338,0 10.14212,1.05657 12.01892,5.54836995 3.23198,7.7352302 0.41713,15.5242102 -6.28264,17.3846902 -2.09111,0.58068 -5.71452,1.0583 -8.05202,1.06136 l -4.25,0.006 0,-12 z m 12.37475,8.04762 c 2.86724,-1.09012 4.9426,-6.84435 3.96254,-10.9866902 -1.07082,-4.52592 -3.2216,-6.06093 -8.49228,-6.06093 l -4.84501,0 0,8.3333302 c 0,4.58334 0.3,8.63334 0.66667,9 0.97328,0.97329 5.81444,0.81445 8.70808,-0.28571 z m 11.62525,-8.04762 0,-12.00000015 6.56574,0 c 7.85338,0 10.14212,1.05657 12.01892,5.54836995 3.23198,7.7352302 0.41713,15.5242102 -6.28264,17.3846902 -2.09111,0.58068 -5.71452,1.0583 -8.05202,1.06136 l -4.25,0.006 0,-12 z m 12.37475,8.04762 c 2.86724,-1.09012 4.9426,-6.84435 3.96254,-10.9866902 -1.07082,-4.52592 -3.2216,-6.06093 -8.49228,-6.06093 l -4.84501,0 0,8.3333302 c 0,4.58334 0.3,8.63334 0.66667,9 0.97328,0.97329 5.81444,0.81445 8.70808,-0.28571 z m -538.02759,-27.0588202 -7.15283,-17.9887998 2.65283,0.01 c 2.48905,0.009 2.95439,0.82727 7.53674,13.25 2.68614,7.2820998 5.30737,14.3651998 5.82494,15.7401998 1.00755,2.6767 0.80321,3.11157 10.21995,-21.7499998 2.40709,-6.35508 3.05706,-7.25 5.26562,-7.25 1.97753,0 2.38143,0.37647 1.87745,1.75 -0.35316,0.9625 -3.43881,9.05963 -6.85699,17.9936198 -6.12368,16.0052702 -6.25889,16.2435502 -9.21487,16.2388002 -2.95622,-0.005 -3.10438,-0.26733 -10.15284,-17.9936202 z m 195.35485,16.7612 c -8.03091,-19.6079898 -13.70201,-33.7611398 -13.70201,-34.1955898 0,-0.30492 1.08566,-0.55441 2.41258,-0.55441 2.07574,0 2.79596,1.01221 5.15863,7.25 9.39209,24.7964798 9.21633,24.4213998 10.19173,21.7499998 10.36334,-28.3829698 10.63438,-28.9692698 13.39958,-28.9849298 l 2.66251,-0.0151 -2.98253,7.75 c -11.23077,29.18275 -10.77475,28.25 -13.81134,28.25 -1.54945,0 -3.04757,-0.5625002 -3.32915,-1.2500002 z m 284,0 c -8.03091,-19.6079898 -13.70201,-33.7611398 -13.70201,-34.1955898 0,-0.30492 1.08566,-0.55441 2.41258,-0.55441 2.07574,0 2.79596,1.01221 5.15863,7.25 9.39209,24.7964798 9.21633,24.4213998 10.19173,21.7499998 10.36334,-28.3829698 10.63438,-28.9692698 13.39958,-28.9849298 l 2.66251,-0.0151 -2.98253,7.75 c -11.23077,29.18275 -10.77475,28.25 -13.81134,28.25 -1.54945,0 -3.04757,-0.5625002 -3.32915,-1.2500002 z"
       id="path2848" />
  </g>
</svg>
